<svg id="Banner_White_Board" data-name="Banner White Board" xmlns="http://www.w3.org/2000/svg" xmlns:xlink="http://www.w3.org/1999/xlink" viewBox="0 0 1080 200"><defs><style>.cls-1{fill:#fff;}.cls-2{fill:#203a6c;stroke:#203a6c;stroke-miterlimit:10;stroke-width:2.75px;}</style><symbol id="ESSS_Icon_White" data-name="ESSS Icon White" viewBox="0 0 165 165"><g id="Circle"><circle class="cls-1" cx="82.5" cy="82.5" r="82.5"/></g><g id="E"><path class="cls-2" d="M105.55,41.27,38,73.32a2.48,2.48,0,0,1-3.31-1.2L24.08,49.31A2.47,2.47,0,0,1,25.26,46L92.79,14a2.49,2.49,0,0,1,3.32,1.2L106.73,38A2.49,2.49,0,0,1,105.55,41.27Z"/><path class="cls-2" d="M140.35,117.51l-67.57,32.1a2.47,2.47,0,0,1-3.31-1.19L58.89,125.69a2.47,2.47,0,0,1,1.18-3.29l67.58-32.11a2.48,2.48,0,0,1,3.31,1.2l10.58,22.72A2.49,2.49,0,0,1,140.35,117.51Z"/><path class="cls-2" d="M100,89.8,56.11,110.56a2.56,2.56,0,0,1-3.4-1.22L42.2,87a2.56,2.56,0,0,1,1.21-3.39L87.24,62.81A2.56,2.56,0,0,1,90.66,64l10.51,22.37A2.57,2.57,0,0,1,100,89.8Z"/></g></symbol></defs><g id="Banner_White" data-name="Banner White"><path class="cls-1" d="M418.68,148.28a13,13,0,0,1,6,1.3,11.71,11.71,0,0,1,4.29,3.84l-2.81,2.69a9.43,9.43,0,0,0-3.34-3.25,9,9,0,0,0-4.38-1,8,8,0,0,0-3.08.51,3.89,3.89,0,0,0-1.78,1.35,3.28,3.28,0,0,0-.56,1.89,3,3,0,0,0,.83,2.1,6.17,6.17,0,0,0,3.14,1.41l5.23,1.17a10.12,10.12,0,0,1,5.3,2.49,6,6,0,0,1,1.56,4.25,6.86,6.86,0,0,1-1.28,4.14,8.11,8.11,0,0,1-3.57,2.69,14.15,14.15,0,0,1-5.36.93,16,16,0,0,1-4.92-.7,13,13,0,0,1-3.82-1.91,11.2,11.2,0,0,1-2.69-2.77l2.88-2.88A10,10,0,0,0,412.4,169a8.87,8.87,0,0,0,2.91,1.66,11,11,0,0,0,3.68.59,10.13,10.13,0,0,0,3.1-.43,4.16,4.16,0,0,0,2-1.27,3.06,3.06,0,0,0,.68-2,2.92,2.92,0,0,0-.76-2,5.32,5.32,0,0,0-2.82-1.32l-5.66-1.29a12.46,12.46,0,0,1-3.86-1.44,6.31,6.31,0,0,1-2.26-2.28,6.13,6.13,0,0,1-.74-3,6.93,6.93,0,0,1,1.19-4,8.25,8.25,0,0,1,3.45-2.84A12.39,12.39,0,0,1,418.68,148.28Z"/><path class="cls-1" d="M455.89,167.58a10.44,10.44,0,0,1-2.34,4,10.31,10.31,0,0,1-3.67,2.44,12.81,12.81,0,0,1-4.64.81,12.58,12.58,0,0,1-6.44-1.59,10.72,10.72,0,0,1-4.21-4.57,17.75,17.75,0,0,1,0-14.19,10.72,10.72,0,0,1,4.21-4.57,12.48,12.48,0,0,1,6.4-1.59,14,14,0,0,1,4.58.7,9.24,9.24,0,0,1,3.49,2.1,9.56,9.56,0,0,1,2.23,3.51l-3.94,1.76a6.64,6.64,0,0,0-2.27-3.38,6.44,6.44,0,0,0-3.86-1.07,7.71,7.71,0,0,0-4.17,1.13,7.46,7.46,0,0,0-2.79,3.28,12.42,12.42,0,0,0-1,5.23,13.13,13.13,0,0,0,.93,5.2,7.28,7.28,0,0,0,2.69,3.3,7.66,7.66,0,0,0,4.22,1.13,6.94,6.94,0,0,0,4.11-1.23,6.73,6.73,0,0,0,2.48-3.69Z"/><path class="cls-1" d="M465,148.66v25.75h-4.17V148.66Z"/><path class="cls-1" d="M472.27,174.41V148.66h18.64v3.59H476.44v7.41h11.31v3.51H476.44v7.65h15v3.59Z"/><path class="cls-1" d="M517.78,148.66v25.75h-5l-9.94-16.23-2.5-4.56h0l.16,4.17v16.62h-3.82V148.66h4.91l9.91,16.19,2.53,4.64h0l-.15-4.21V148.66Z"/><path class="cls-1" d="M546.33,167.58a10.09,10.09,0,0,1-6,6.4,12.81,12.81,0,0,1-4.64.81,12.58,12.58,0,0,1-6.44-1.59,10.72,10.72,0,0,1-4.21-4.57,17.75,17.75,0,0,1,0-14.19,10.72,10.72,0,0,1,4.21-4.57,12.51,12.51,0,0,1,6.4-1.59,14,14,0,0,1,4.58.7,9.24,9.24,0,0,1,3.49,2.1,9.44,9.44,0,0,1,2.23,3.51L542,156.35a6.69,6.69,0,0,0-2.26-3.38,6.49,6.49,0,0,0-3.87-1.07A7.71,7.71,0,0,0,531.7,153a7.53,7.53,0,0,0-2.79,3.28,12.42,12.42,0,0,0-1,5.23,13.13,13.13,0,0,0,.93,5.2,7.34,7.34,0,0,0,2.69,3.3,7.66,7.66,0,0,0,4.22,1.13,6.94,6.94,0,0,0,4.11-1.23,6.73,6.73,0,0,0,2.48-3.69Z"/><path class="cls-1" d="M551.28,174.41V148.66h18.64v3.59H555.45v7.41h11.31v3.51H555.45v7.65h15v3.59Z"/><path class="cls-1" d="M596.75,148.28a13,13,0,0,1,6,1.3,11.71,11.71,0,0,1,4.29,3.84l-2.81,2.69a9.49,9.49,0,0,0-3.33-3.25,9.09,9.09,0,0,0-4.39-1,8,8,0,0,0-3.08.51,3.89,3.89,0,0,0-1.78,1.35,3.28,3.28,0,0,0-.56,1.89,3,3,0,0,0,.83,2.1,6.17,6.17,0,0,0,3.14,1.41l5.23,1.17a10.08,10.08,0,0,1,5.3,2.49,6,6,0,0,1,1.56,4.25,6.79,6.79,0,0,1-1.28,4.14,8.11,8.11,0,0,1-3.57,2.69,14.15,14.15,0,0,1-5.36.93,16,16,0,0,1-4.92-.7,13.15,13.15,0,0,1-3.82-1.91,11.2,11.2,0,0,1-2.69-2.77l2.89-2.88a9.72,9.72,0,0,0,2.06,2.43,8.87,8.87,0,0,0,2.91,1.66,11,11,0,0,0,3.68.59,10.13,10.13,0,0,0,3.1-.43,4.16,4.16,0,0,0,2-1.27,3.06,3.06,0,0,0,.68-2,3,3,0,0,0-.75-2,5.4,5.4,0,0,0-2.83-1.32l-5.66-1.29a12.56,12.56,0,0,1-3.86-1.44,6.31,6.31,0,0,1-2.26-2.28,6.13,6.13,0,0,1-.74-3,6.93,6.93,0,0,1,1.19-4,8.25,8.25,0,0,1,3.45-2.84A12.39,12.39,0,0,1,596.75,148.28Z"/><path class="cls-1" d="M630.8,148.66v3.59H622v22.16h-4.18V152.25H609v-3.59Z"/><path class="cls-1" d="M655.91,148.66v15.88c0,3.4-.89,6-2.69,7.68s-4.4,2.57-7.84,2.57-6-.85-7.78-2.57-2.71-4.28-2.71-7.68V148.66h4.18V164q0,3.63,1.56,5.38a6,6,0,0,0,4.75,1.76,6.1,6.1,0,0,0,4.8-1.76q1.56-1.75,1.56-5.38V148.66Z"/><path class="cls-1" d="M671.75,148.66q6,0,9.42,3.34t3.37,9.54q0,6.19-3.37,9.53t-9.42,3.34h-9.09V148.66Zm0,22.2a8,8,0,0,0,6.26-2.44,10,10,0,0,0,2.16-6.88c0-3-.72-5.26-2.16-6.89a8,8,0,0,0-6.26-2.44h-4.92v18.65Z"/><path class="cls-1" d="M690.35,174.41V148.66H709v3.59H694.52v7.41h11.31v3.51H694.52v7.65h15v3.59Z"/><path class="cls-1" d="M735.86,148.66v25.75h-5L721,158.18l-2.5-4.56h0l.16,4.17v16.62h-3.83V148.66h4.92l9.9,16.19,2.54,4.64h0l-.16-4.21V148.66Z"/><path class="cls-1" d="M762.23,148.66v3.59h-8.82v22.16h-4.17V152.25h-8.81v-3.59Z"/><path class="cls-1" d="M787,148.28a13,13,0,0,1,6,1.3,11.71,11.71,0,0,1,4.29,3.84l-2.81,2.69a9.49,9.49,0,0,0-3.33-3.25,9.09,9.09,0,0,0-4.39-1,8,8,0,0,0-3.08.51,3.89,3.89,0,0,0-1.78,1.35,3.36,3.36,0,0,0-.56,1.89,3,3,0,0,0,.84,2.1,6.09,6.09,0,0,0,3.14,1.41l5.22,1.17a10.12,10.12,0,0,1,5.31,2.49,6.05,6.05,0,0,1,1.56,4.25,6.8,6.8,0,0,1-1.29,4.14,8.11,8.11,0,0,1-3.57,2.69,14.15,14.15,0,0,1-5.36.93,16,16,0,0,1-4.92-.7,13.15,13.15,0,0,1-3.82-1.91,11.2,11.2,0,0,1-2.69-2.77l2.89-2.88a9.72,9.72,0,0,0,2.06,2.43,8.87,8.87,0,0,0,2.91,1.66,11,11,0,0,0,3.68.59,10.25,10.25,0,0,0,3.11-.43,4.13,4.13,0,0,0,2-1.27,3.07,3.07,0,0,0,.69-2,3,3,0,0,0-.76-2,5.36,5.36,0,0,0-2.83-1.32l-5.66-1.29a12.56,12.56,0,0,1-3.86-1.44,6.31,6.31,0,0,1-2.26-2.28,6.24,6.24,0,0,1-.74-3,7,7,0,0,1,1.19-4,8.25,8.25,0,0,1,3.45-2.84A12.39,12.39,0,0,1,787,148.28Z"/><path class="cls-1" d="M813.51,148.28a12.65,12.65,0,0,1,6.48,1.59,10.72,10.72,0,0,1,4.21,4.57,17.75,17.75,0,0,1,0,14.19A10.72,10.72,0,0,1,820,173.2a13.9,13.9,0,0,1-12.91,0,10.66,10.66,0,0,1-4.21-4.57,17.64,17.64,0,0,1,0-14.19,10.66,10.66,0,0,1,4.21-4.57A12.54,12.54,0,0,1,813.51,148.28Zm0,3.62a7.45,7.45,0,0,0-4.15,1.13,7.23,7.23,0,0,0-2.67,3.28,14.94,14.94,0,0,0,0,10.43,7.24,7.24,0,0,0,2.67,3.3,8.26,8.26,0,0,0,8.34,0,7.32,7.32,0,0,0,2.68-3.3,15.09,15.09,0,0,0,0-10.43A7.32,7.32,0,0,0,817.7,153,7.51,7.51,0,0,0,813.51,151.9Z"/><path class="cls-1" d="M852.82,167.58a10.32,10.32,0,0,1-2.34,4,10.19,10.19,0,0,1-3.66,2.44,12.85,12.85,0,0,1-4.64.81,12.58,12.58,0,0,1-6.44-1.59,10.72,10.72,0,0,1-4.21-4.57,17.75,17.75,0,0,1,0-14.19,10.72,10.72,0,0,1,4.21-4.57,12.48,12.48,0,0,1,6.4-1.59,14,14,0,0,1,4.58.7,9.32,9.32,0,0,1,3.49,2.1,9.42,9.42,0,0,1,2.22,3.51l-3.93,1.76a6.7,6.7,0,0,0-2.27-3.38,6.46,6.46,0,0,0-3.86-1.07A7.68,7.68,0,0,0,838.2,153a7.46,7.46,0,0,0-2.79,3.28,12.42,12.42,0,0,0-1,5.23,13.13,13.13,0,0,0,.93,5.2A7.28,7.28,0,0,0,838,170a7.65,7.65,0,0,0,4.21,1.13,7,7,0,0,0,4.12-1.23,6.73,6.73,0,0,0,2.48-3.69Z"/><path class="cls-1" d="M862,148.66v25.75h-4.17V148.66Z"/><path class="cls-1" d="M869.2,174.41V148.66h18.64v3.59H873.38v7.41h11.31v3.51H873.38v7.65h15v3.59Z"/><path class="cls-1" d="M912.76,148.66v3.59H904v22.16h-4.17V152.25H891v-3.59Z"/><path class="cls-1" d="M936.28,148.66l-9.2,15.88v9.87h-4.17v-9.87l-9.17-15.88h4.64L923,157l2,3.82,2-3.82,4.56-8.31Z"/><use width="165" height="165" transform="translate(229.79 16.39)" xlink:href="#ESSS_Icon_White"/><path class="cls-1" d="M474.75,137.66h-15.4L424.48,85v52.69h-15.4V60.77h15.4l34.87,52.8V60.77h15.4Z"/><path class="cls-1" d="M543.39,84a18,18,0,0,0-7.26-7.37,22,22,0,0,0-10.78-2.53,23.49,23.49,0,0,0-12.1,3.08A21.21,21.21,0,0,0,505,86a28.22,28.22,0,0,0-3,13.2,28.41,28.41,0,0,0,3,13.42,21.53,21.53,0,0,0,8.42,8.8A24.85,24.85,0,0,0,526,124.46q8.81,0,14.41-4.68t7.37-13h-26.4V95H563V108.4a36.19,36.19,0,0,1-6.6,14.85,37.28,37.28,0,0,1-13,10.94,38.29,38.29,0,0,1-17.87,4.13,40.46,40.46,0,0,1-20.08-5A36.4,36.4,0,0,1,491.3,119.4a39.92,39.92,0,0,1-5.11-20.24,40.23,40.23,0,0,1,5.11-20.3,36.35,36.35,0,0,1,14.08-14,40.25,40.25,0,0,1,20-5q13,0,22.55,6.32A32.31,32.31,0,0,1,561.1,84Z"/><path class="cls-1" d="M589.81,60.88v76.78h-15.4V60.88Z"/><path class="cls-1" d="M670.66,137.66h-15.4L620.39,85v52.69H605V60.77h15.4l34.87,52.8V60.77h15.4Z"/><path class="cls-1" d="M701.24,73.31V92.56h25.85v12.21H701.24v20.35h29.15v12.54H685.84V60.77h44.55V73.31Z"/><path class="cls-1" d="M759.76,73.31V92.56h25.85v12.21H759.76v20.35h29.15v12.54H744.36V60.77h44.55V73.31Z"/><path class="cls-1" d="M842.48,137.66l-16.94-29.92h-7.26v29.92h-15.4V60.88H831.7A33.65,33.65,0,0,1,846.88,64a21.87,21.87,0,0,1,9.4,8.47,23.15,23.15,0,0,1,3.14,11.94A22.87,22.87,0,0,1,855,98.11q-4.41,6.11-13.09,8.42l18.37,31.13Zm-24.2-41.47h12.87q6.27,0,9.35-3c2-2,3.08-4.82,3.08-8.41s-1-6.25-3.08-8.2-5.17-2.91-9.35-2.91H818.28Z"/><path class="cls-1" d="M888.79,60.88v76.78h-15.4V60.88Z"/><path class="cls-1" d="M969.64,137.66h-15.4L919.37,85v52.69H904V60.77h15.4l34.87,52.8V60.77h15.4Z"/><path class="cls-1" d="M1038.27,84a18,18,0,0,0-7.26-7.37,22,22,0,0,0-10.78-2.53,23.52,23.52,0,0,0-12.1,3.08,21.21,21.21,0,0,0-8.25,8.8,28.22,28.22,0,0,0-3,13.2,28.3,28.3,0,0,0,3,13.42,21.51,21.51,0,0,0,8.41,8.8,24.9,24.9,0,0,0,12.54,3.08q8.8,0,14.41-4.68t7.37-13h-26.4V95h41.58V108.4a35.93,35.93,0,0,1-6.6,14.85,37.24,37.24,0,0,1-13,10.94,38.36,38.36,0,0,1-17.88,4.13,40.45,40.45,0,0,1-20.07-5,36.34,36.34,0,0,1-14.08-13.91,39.93,39.93,0,0,1-5.12-20.24,40.23,40.23,0,0,1,5.12-20.3,36.28,36.28,0,0,1,14.08-14,40.21,40.21,0,0,1,20-5q13,0,22.55,6.32A32.26,32.26,0,0,1,1056,84Z"/><path class="cls-1" d="M39.43,135.68a23.74,23.74,0,0,1-10.17-7.92,20.87,20.87,0,0,1-3.85-12.21h16.5A10.69,10.69,0,0,0,45.26,123q3,2.75,8.31,2.75T62,123.19a8.41,8.41,0,0,0,3.08-6.76A7.84,7.84,0,0,0,63,110.82a14.78,14.78,0,0,0-5.23-3.47,88.89,88.89,0,0,0-8.63-2.8A93,93,0,0,1,37,100.2a21.33,21.33,0,0,1-8-6.49q-3.35-4.33-3.35-11.6A20.76,20.76,0,0,1,29,70.23a21.71,21.71,0,0,1,9.57-7.76,34.91,34.91,0,0,1,14.08-2.69q11.88,0,19.3,5.77t8.2,16.12H63.25a8.84,8.84,0,0,0-3.36-6.55,12.64,12.64,0,0,0-8.3-2.58,10.71,10.71,0,0,0-7.21,2.31,8.36,8.36,0,0,0-2.69,6.71,6.94,6.94,0,0,0,2,5.11A15.52,15.52,0,0,0,48.78,90a89.33,89.33,0,0,0,8.53,2.92,90.23,90.23,0,0,1,12.21,4.4,22,22,0,0,1,8.14,6.6q3.41,4.39,3.41,11.55a21.8,21.8,0,0,1-3.19,11.44,22.57,22.57,0,0,1-9.35,8.41,31.92,31.92,0,0,1-14.63,3.14A36.53,36.53,0,0,1,39.43,135.68Z"/><path class="cls-1" d="M141.79,60.88V73.31h-32V93h24.53v12.21H109.78v32.45H94.38V60.88Z"/><path class="cls-1" d="M167.86,60.88V108.4q0,7.81,4.07,11.93t11.44,4.13q7.47,0,11.55-4.13T199,108.4V60.88H214.5v47.41q0,9.79-4.24,16.55A26.83,26.83,0,0,1,198.93,135a36,36,0,0,1-15.78,3.41A35.08,35.08,0,0,1,167.58,135a26,26,0,0,1-11.05-10.18q-4.08-6.77-4.07-16.55V60.88Z"/></g></svg>