<svg xmlns="http://www.w3.org/2000/svg" xmlns:xlink="http://www.w3.org/1999/xlink" viewBox="0 0 1080 200"><defs><style>.cls-1{fill:#203a6c;}.cls-2{fill:#fff;}</style><symbol id="ESSS_Icon_Blue" data-name="ESSS Icon Blue" viewBox="0 0 165 165"><g id="Circle"><circle class="cls-1" cx="82.5" cy="82.5" r="82.5"/></g><g id="E"><path class="cls-2" d="M104.8,41.63,38.78,73a3.32,3.32,0,0,1-4.42-1.6l-9.93-21.3A3.31,3.31,0,0,1,26,45.67L92,14.34a3.32,3.32,0,0,1,4.43,1.6l9.93,21.28A3.33,3.33,0,0,1,104.8,41.63Z"/><path class="cls-2" d="M139.61,117.87,73.54,149.25a3.3,3.3,0,0,1-4.42-1.59l-9.89-21.23A3.32,3.32,0,0,1,60.82,122l66.07-31.39a3.32,3.32,0,0,1,4.43,1.6l9.87,21.21A3.34,3.34,0,0,1,139.61,117.87Z"/><path class="cls-2" d="M99.2,90.16l-42.34,20a3.39,3.39,0,0,1-4.51-1.62L42.55,87.7a3.4,3.4,0,0,1,1.61-4.5l42.32-20A3.4,3.4,0,0,1,91,64.8l9.79,20.86A3.4,3.4,0,0,1,99.2,90.16Z"/></g></symbol></defs><g id="Banner_Blue_Board" data-name="Banner Blue Board"><g id="Banner_Blue" data-name="Banner Blue"><path class="cls-1" d="M418.84,145.78A14.82,14.82,0,0,1,425,147a12.16,12.16,0,0,1,4.52,3.59l-3,3.47a10.68,10.68,0,0,0-3.49-3,9.59,9.59,0,0,0-4.39-1,7.51,7.51,0,0,0-2.71.43,3.42,3.42,0,0,0-1.56,1.13,2.65,2.65,0,0,0-.49,1.56,2.29,2.29,0,0,0,.82,1.78,6.66,6.66,0,0,0,2.81,1.19l4.8,1.09a11,11,0,0,1,5.48,2.55,6.06,6.06,0,0,1,1.65,4.39,7.19,7.19,0,0,1-1.32,4.35,8.32,8.32,0,0,1-3.71,2.77,14.46,14.46,0,0,1-5.46.95,17.78,17.78,0,0,1-4.93-.64,15,15,0,0,1-4-1.77,12,12,0,0,1-2.92-2.62l3-3.62a10.16,10.16,0,0,0,2.22,2.22,11,11,0,0,0,3,1.54A11.21,11.21,0,0,0,419,168a8.83,8.83,0,0,0,2.71-.37,3.61,3.61,0,0,0,1.68-1.06,2.49,2.49,0,0,0,.57-1.65,2.42,2.42,0,0,0-.69-1.74,4.86,4.86,0,0,0-2.51-1.11l-5.23-1.17a16.06,16.06,0,0,1-3.88-1.43,5.88,5.88,0,0,1-3.29-5.55,7.21,7.21,0,0,1,1.24-4.14,8.51,8.51,0,0,1,3.61-2.9A13.58,13.58,0,0,1,418.84,145.78Z"/><path class="cls-1" d="M456.2,164.81a10.26,10.26,0,0,1-2.34,4.17,10.08,10.08,0,0,1-3.79,2.5,13.64,13.64,0,0,1-4.79.81,13.12,13.12,0,0,1-6.61-1.59,10.71,10.71,0,0,1-4.29-4.57,17.53,17.53,0,0,1,0-14.19,10.71,10.71,0,0,1,4.29-4.57,13,13,0,0,1,6.53-1.59,15,15,0,0,1,4.8.72,9.27,9.27,0,0,1,3.64,2.2,8.92,8.92,0,0,1,2.21,3.74L451,154.51a5.94,5.94,0,0,0-2-3.33,5.77,5.77,0,0,0-3.51-1,6.63,6.63,0,0,0-3.68,1,6.5,6.5,0,0,0-2.44,3,12.17,12.17,0,0,0-.86,4.85,13.07,13.07,0,0,0,.8,4.84,6.2,6.2,0,0,0,2.36,3,6.85,6.85,0,0,0,3.82,1,5.67,5.67,0,0,0,5.81-4.57Z"/><path class="cls-1" d="M465.79,146.16V171.9h-5.38V146.16Z"/><path class="cls-1" d="M472.11,171.9V146.16h19.31v4.33H477.49v6.4h11V161h-11v6.56H492v4.32Z"/><path class="cls-1" d="M518.52,146.16V171.9h-6.16l-9-15.13-2.22-4.21h0l.15,4.45V171.9h-4.83V146.16h6.12l9,15.1,2.22,4.25h.08l-.16-4.45v-14.9Z"/><path class="cls-1" d="M546.87,164.81a9.89,9.89,0,0,1-6.12,6.67,13.74,13.74,0,0,1-4.8.81,13.12,13.12,0,0,1-6.61-1.59,10.71,10.71,0,0,1-4.29-4.57,17.53,17.53,0,0,1,0-14.19,10.71,10.71,0,0,1,4.29-4.57,13,13,0,0,1,6.53-1.59,15,15,0,0,1,4.8.72,9.31,9.31,0,0,1,3.65,2.2,8.9,8.9,0,0,1,2.2,3.74l-4.87,2.07a6,6,0,0,0-2-3.33,5.77,5.77,0,0,0-3.51-1,6.66,6.66,0,0,0-3.69,1,6.48,6.48,0,0,0-2.43,3,12,12,0,0,0-.86,4.85,12.87,12.87,0,0,0,.8,4.84,6.15,6.15,0,0,0,2.36,3,6.82,6.82,0,0,0,3.82,1,6,6,0,0,0,3.64-1.13,6.07,6.07,0,0,0,2.17-3.44Z"/><path class="cls-1" d="M551.08,171.9V146.16h19.31v4.33H556.47v6.4h11V161h-11v6.56h14.47v4.32Z"/><path class="cls-1" d="M596.32,145.78a14.86,14.86,0,0,1,6.17,1.2,12.24,12.24,0,0,1,4.52,3.59L604,154a10.68,10.68,0,0,0-3.49-3,9.59,9.59,0,0,0-4.39-1,7.47,7.47,0,0,0-2.71.43,3.37,3.37,0,0,0-1.56,1.13,2.65,2.65,0,0,0-.49,1.56,2.26,2.26,0,0,0,.82,1.78,6.66,6.66,0,0,0,2.81,1.19l4.79,1.09a10.9,10.9,0,0,1,5.48,2.55,6,6,0,0,1,1.66,4.39,7.19,7.19,0,0,1-1.32,4.35,8.32,8.32,0,0,1-3.71,2.77,14.46,14.46,0,0,1-5.46.95,17.78,17.78,0,0,1-4.93-.64,15,15,0,0,1-4-1.77,12.2,12.2,0,0,1-2.93-2.62l3-3.62a10,10,0,0,0,2.22,2.22,10.88,10.88,0,0,0,3,1.54,11.12,11.12,0,0,0,3.57.57,8.83,8.83,0,0,0,2.71-.37,3.61,3.61,0,0,0,1.68-1.06,2.48,2.48,0,0,0,.56-1.65,2.41,2.41,0,0,0-.68-1.74A4.86,4.86,0,0,0,598.2,162L593,160.87a16.06,16.06,0,0,1-3.88-1.43,5.91,5.91,0,0,1-3.3-5.55,7.22,7.22,0,0,1,1.25-4.14,8.45,8.45,0,0,1,3.61-2.9A13.53,13.53,0,0,1,596.32,145.78Z"/><path class="cls-1" d="M631.27,146.16v4.33h-8.62V171.9h-5.38V150.49h-8.66v-4.33Z"/><path class="cls-1" d="M656.77,146.16v15.61q0,5.26-2.8,7.89c-1.88,1.76-4.61,2.63-8.19,2.63s-6.32-.87-8.19-2.63-2.81-4.38-2.81-7.89V146.16h5.38v15.37a7.09,7.09,0,0,0,1.38,4.8,5.4,5.4,0,0,0,4.24,1.56,5.31,5.31,0,0,0,4.21-1.56,7.14,7.14,0,0,0,1.36-4.8V146.16Z"/><path class="cls-1" d="M672.53,146.16q6,0,9.36,3.34T685.2,159q0,6.16-3.31,9.52t-9.36,3.35h-9.95V146.16Zm-.27,21.45a6.81,6.81,0,0,0,5.52-2.2c1.23-1.47,1.85-3.59,1.85-6.38s-.62-4.9-1.85-6.37a6.82,6.82,0,0,0-5.52-2.21H668v17.16Z"/><path class="cls-1" d="M690.24,171.9V146.16h19.3v4.33H695.62v6.4h11V161h-11v6.56h14.47v4.32Z"/><path class="cls-1" d="M736.65,146.16V171.9h-6.17l-9-15.13-2.22-4.21h0l.16,4.45V171.9h-4.84V146.16h6.13l9,15.1,2.22,4.25H732l-.16-4.45v-14.9Z"/><path class="cls-1" d="M763.32,146.16v4.33H754.7V171.9h-5.38V150.49h-8.66v-4.33Z"/><path class="cls-1" d="M787.46,145.78a14.78,14.78,0,0,1,6.16,1.2,12.19,12.19,0,0,1,4.53,3.59l-3,3.47a10.48,10.48,0,0,0-3.49-3,9.55,9.55,0,0,0-4.38-1,7.43,7.43,0,0,0-2.71.43,3.37,3.37,0,0,0-1.56,1.13,2.65,2.65,0,0,0-.49,1.56,2.26,2.26,0,0,0,.82,1.78,6.6,6.6,0,0,0,2.81,1.19l4.79,1.09a10.9,10.9,0,0,1,5.48,2.55,6,6,0,0,1,1.66,4.39,7.14,7.14,0,0,1-1.33,4.35,8.29,8.29,0,0,1-3.7,2.77,14.53,14.53,0,0,1-5.46.95,17.78,17.78,0,0,1-4.93-.64,15,15,0,0,1-4-1.77,12,12,0,0,1-2.93-2.62l3-3.62a10,10,0,0,0,2.23,2.22,10.88,10.88,0,0,0,3,1.54,11.12,11.12,0,0,0,3.57.57,8.87,8.87,0,0,0,2.71-.37,3.61,3.61,0,0,0,1.68-1.06,2.54,2.54,0,0,0,.56-1.65,2.46,2.46,0,0,0-.68-1.74,4.9,4.9,0,0,0-2.52-1.11l-5.22-1.17a16.06,16.06,0,0,1-3.88-1.43,5.91,5.91,0,0,1-3.3-5.55,7.22,7.22,0,0,1,1.25-4.14,8.39,8.39,0,0,1,3.61-2.9A13.53,13.53,0,0,1,787.46,145.78Z"/><path class="cls-1" d="M813.9,145.78a13.06,13.06,0,0,1,6.6,1.59,10.85,10.85,0,0,1,4.27,4.57,17.53,17.53,0,0,1,0,14.19,10.85,10.85,0,0,1-4.27,4.57,14.51,14.51,0,0,1-13.21,0,10.71,10.71,0,0,1-4.29-4.57,17.53,17.53,0,0,1,0-14.19,10.71,10.71,0,0,1,4.29-4.57A13.15,13.15,0,0,1,813.9,145.78Zm0,4.4a6.49,6.49,0,0,0-3.7,1,6.29,6.29,0,0,0-2.32,3,15.07,15.07,0,0,0,0,9.69,6.25,6.25,0,0,0,2.32,3,7.17,7.17,0,0,0,7.37,0,6.25,6.25,0,0,0,2.32-3,15.07,15.07,0,0,0,0-9.69,6.29,6.29,0,0,0-2.32-3A6.43,6.43,0,0,0,813.9,150.18Z"/><path class="cls-1" d="M853.33,164.81a9.89,9.89,0,0,1-6.12,6.67,13.7,13.7,0,0,1-4.8.81,13.15,13.15,0,0,1-6.61-1.59,10.71,10.71,0,0,1-4.29-4.57,17.53,17.53,0,0,1,0-14.19,10.71,10.71,0,0,1,4.29-4.57,13,13,0,0,1,6.53-1.59,15,15,0,0,1,4.8.72,9.31,9.31,0,0,1,3.65,2.2,8.9,8.9,0,0,1,2.2,3.74l-4.87,2.07a5.94,5.94,0,0,0-2-3.33,5.77,5.77,0,0,0-3.51-1,6.68,6.68,0,0,0-3.69,1,6.48,6.48,0,0,0-2.43,3,12,12,0,0,0-.86,4.85,12.87,12.87,0,0,0,.8,4.84,6.15,6.15,0,0,0,2.36,3,6.82,6.82,0,0,0,3.82,1,6,6,0,0,0,3.65-1.13,6.11,6.11,0,0,0,2.16-3.44Z"/><path class="cls-1" d="M862.93,146.16V171.9h-5.39V146.16Z"/><path class="cls-1" d="M869.24,171.9V146.16h19.31v4.33H874.63v6.4h11V161h-11v6.56H889.1v4.32Z"/><path class="cls-1" d="M913.9,146.16v4.33h-8.62V171.9H899.9V150.49h-8.66v-4.33Z"/><path class="cls-1" d="M938.16,146.16,929,162.27v9.63h-5.38v-9.63l-9.13-16.11h5.74l4.13,7.73,2,4,2-4,4.13-7.73Z"/><use width="165" height="165" transform="translate(229.48 17.09)" xlink:href="#ESSS_Icon_Blue"/><path class="cls-1" d="M474.75,137.66h-15.4L424.48,85v52.69h-15.4V60.77h15.4l34.87,52.8V60.77h15.4Z"/><path class="cls-1" d="M543.39,84a18,18,0,0,0-7.26-7.37,22,22,0,0,0-10.78-2.53,23.49,23.49,0,0,0-12.1,3.08A21.21,21.21,0,0,0,505,86a28.22,28.22,0,0,0-3,13.2,28.41,28.41,0,0,0,3,13.42,21.53,21.53,0,0,0,8.42,8.8A24.85,24.85,0,0,0,526,124.46q8.81,0,14.41-4.68t7.37-13h-26.4V95H563V108.4a36.19,36.19,0,0,1-6.6,14.85,37.28,37.28,0,0,1-13,10.94,38.29,38.29,0,0,1-17.87,4.13,40.46,40.46,0,0,1-20.08-5A36.4,36.4,0,0,1,491.3,119.4a39.92,39.92,0,0,1-5.11-20.24,40.23,40.23,0,0,1,5.11-20.3,36.35,36.35,0,0,1,14.08-14,40.25,40.25,0,0,1,20-5q13,0,22.55,6.32A32.31,32.31,0,0,1,561.1,84Z"/><path class="cls-1" d="M589.81,60.88v76.78h-15.4V60.88Z"/><path class="cls-1" d="M670.66,137.66h-15.4L620.39,85v52.69H605V60.77h15.4l34.87,52.8V60.77h15.4Z"/><path class="cls-1" d="M701.24,73.31V92.56h25.85v12.21H701.24v20.35h29.15v12.54H685.84V60.77h44.55V73.31Z"/><path class="cls-1" d="M759.76,73.31V92.56h25.85v12.21H759.76v20.35h29.15v12.54H744.36V60.77h44.55V73.31Z"/><path class="cls-1" d="M842.48,137.66l-16.94-29.92h-7.26v29.92h-15.4V60.88H831.7A33.65,33.65,0,0,1,846.88,64a21.87,21.87,0,0,1,9.4,8.47,23.15,23.15,0,0,1,3.14,11.94A22.87,22.87,0,0,1,855,98.11q-4.41,6.11-13.09,8.42l18.37,31.13Zm-24.2-41.47h12.87q6.27,0,9.35-3c2-2,3.08-4.82,3.08-8.41s-1-6.26-3.08-8.2-5.17-2.91-9.35-2.91H818.28Z"/><path class="cls-1" d="M888.79,60.88v76.78h-15.4V60.88Z"/><path class="cls-1" d="M969.64,137.66h-15.4L919.37,85v52.69H904V60.77h15.4l34.87,52.8V60.77h15.4Z"/><path class="cls-1" d="M1038.27,84a18,18,0,0,0-7.26-7.37,22,22,0,0,0-10.78-2.53,23.52,23.52,0,0,0-12.1,3.08,21.21,21.21,0,0,0-8.25,8.8,28.22,28.22,0,0,0-3,13.2,28.3,28.3,0,0,0,3,13.42,21.51,21.51,0,0,0,8.41,8.8,24.9,24.9,0,0,0,12.54,3.08q8.8,0,14.41-4.68t7.37-13h-26.4V95h41.58V108.4a35.93,35.93,0,0,1-6.6,14.85,37.24,37.24,0,0,1-13,10.94,38.36,38.36,0,0,1-17.88,4.13,40.45,40.45,0,0,1-20.07-5,36.34,36.34,0,0,1-14.08-13.91,39.93,39.93,0,0,1-5.12-20.24,40.23,40.23,0,0,1,5.12-20.3,36.28,36.28,0,0,1,14.08-14,40.21,40.21,0,0,1,20-5q13,0,22.55,6.32A32.26,32.26,0,0,1,1056,84Z"/><path class="cls-1" d="M39.43,135.68a23.82,23.82,0,0,1-10.17-7.92,20.87,20.87,0,0,1-3.85-12.21h16.5A10.69,10.69,0,0,0,45.26,123q3,2.75,8.31,2.75T62,123.19a8.41,8.41,0,0,0,3.08-6.76A7.81,7.81,0,0,0,63,110.82a14.78,14.78,0,0,0-5.23-3.47,86.2,86.2,0,0,0-8.63-2.8A93,93,0,0,1,37,100.2a21.33,21.33,0,0,1-8-6.49q-3.35-4.33-3.35-11.6A20.76,20.76,0,0,1,29,70.23a21.71,21.71,0,0,1,9.57-7.76,34.91,34.91,0,0,1,14.08-2.69q11.88,0,19.3,5.77t8.2,16.12H63.25a8.84,8.84,0,0,0-3.36-6.55,12.64,12.64,0,0,0-8.3-2.58,10.71,10.71,0,0,0-7.21,2.31,8.36,8.36,0,0,0-2.69,6.71,6.94,6.94,0,0,0,2,5.11A15.52,15.52,0,0,0,48.78,90a89.33,89.33,0,0,0,8.53,2.92,90.23,90.23,0,0,1,12.21,4.4,21.88,21.88,0,0,1,8.14,6.6q3.41,4.39,3.41,11.55a21.8,21.8,0,0,1-3.19,11.44,22.57,22.57,0,0,1-9.35,8.41,31.92,31.92,0,0,1-14.63,3.14A36.53,36.53,0,0,1,39.43,135.68Z"/><path class="cls-1" d="M141.79,60.88V73.31h-32V93h24.53v12.21H109.78v32.45H94.38V60.88Z"/><path class="cls-1" d="M167.86,60.88V108.4q0,7.81,4.07,11.93t11.44,4.13q7.47,0,11.55-4.13T199,108.4V60.88H214.5v47.41q0,9.79-4.24,16.55A26.9,26.9,0,0,1,198.93,135a36,36,0,0,1-15.78,3.41A35.08,35.08,0,0,1,167.58,135a26,26,0,0,1-11.05-10.18q-4.08-6.77-4.07-16.55V60.88Z"/></g></g></svg>