<svg xmlns="http://www.w3.org/2000/svg" xmlns:xlink="http://www.w3.org/1999/xlink" viewBox="0 0 200 200"><defs><style>.cls-1{fill:#203a6c;}.cls-2{fill:#fff;}</style><symbol id="ESSS_Icon_Blue" data-name="ESSS Icon Blue" viewBox="0 0 165 165"><g id="Circle"><circle class="cls-1" cx="82.5" cy="82.5" r="82.5"/></g><g id="E"><path class="cls-2" d="M104.8,41.63,38.78,73a3.32,3.32,0,0,1-4.42-1.6l-9.93-21.3A3.31,3.31,0,0,1,26,45.67L92,14.34a3.32,3.32,0,0,1,4.43,1.6l9.93,21.28A3.33,3.33,0,0,1,104.8,41.63Z"/><path class="cls-2" d="M139.61,117.87,73.54,149.25a3.3,3.3,0,0,1-4.42-1.59l-9.89-21.23A3.32,3.32,0,0,1,60.82,122l66.07-31.39a3.32,3.32,0,0,1,4.43,1.6l9.87,21.21A3.34,3.34,0,0,1,139.61,117.87Z"/><path class="cls-2" d="M99.2,90.16l-42.34,20a3.39,3.39,0,0,1-4.51-1.62L42.55,87.7a3.4,3.4,0,0,1,1.61-4.5l42.32-20A3.4,3.4,0,0,1,91,64.8l9.79,20.86A3.4,3.4,0,0,1,99.2,90.16Z"/></g></symbol></defs><g id="Icon_Blue_Board" data-name="Icon Blue Board"><use width="165" height="165" transform="translate(17.5 17.5)" xlink:href="#ESSS_Icon_Blue"/></g></svg>